<?xml version="1.0" encoding="utf-8"?>
<!-- Generator: Adobe Illustrator 19.1.0, SVG Export Plug-In . SVG Version: 6.00 Build 0)  -->
<svg version="1.1" id="Layer_1" xmlns="http://www.w3.org/2000/svg" xmlns:xlink="http://www.w3.org/1999/xlink" x="0px" y="0px"
	 viewBox="0 0 375.62 36.59" style="enable-background:new 0 0 375.62 36.59;" xml:space="preserve">
<style type="text/css">
	.st0{fill-rule:evenodd;clip-rule:evenodd;fill:#ABABAB;}
	.st1{fill:#ABABAB;}
</style>
<g>
	<path class="st0" d="M228.38,13.86c-1.35-2.24-3.16-4.05-5.43-5.4c-2.27-1.35-4.81-2.03-7.64-2.06c-2.79,0.03-5.34,0.71-7.61,2.06
		c-2.24,1.35-4.02,3.16-5.4,5.4c-1.35,2.27-2.02,4.82-2.06,7.61c0.03,2.79,0.71,5.34,2.06,7.61c1.38,2.27,3.16,4.08,5.4,5.46
		c2.27,1.32,4.81,2,7.61,2.05c2.82-0.03,5.37-0.7,7.64-2.05c2.27-1.38,4.08-3.19,5.43-5.46c1.32-2.27,2.02-4.82,2.05-7.61
		C230.4,18.68,229.73,16.13,228.38,13.86z M226.13,27.78c-1.1,1.87-2.61,3.37-4.51,4.51c-1.87,1.1-3.95,1.65-6.31,1.69
		c-2.3-0.03-4.41-0.58-6.28-1.69c-1.9-1.14-3.4-2.64-4.47-4.51c-1.13-1.87-1.68-3.95-1.72-6.31c0.03-2.3,0.58-4.41,1.72-6.31
		c1.07-1.87,2.58-3.37,4.47-4.48c1.87-1.1,3.98-1.68,6.28-1.72c2.33,0.03,4.44,0.61,6.31,1.72c1.9,1.1,3.4,2.61,4.51,4.48
		c1.1,1.9,1.66,4.01,1.68,6.31C227.79,23.8,227.24,25.91,226.13,27.78z"/>
	<path class="st1" d="M271.34,14.38c-2.25-2.08-5-3.13-8.21-3.13h-31.08c-0.44,0-0.8,0.36-0.8,0.8c0,0.44,0.36,0.8,0.8,0.8h31.08
		c2.82,0,5.15,0.89,7.12,2.71c1.92,1.78,2.83,3.91,2.87,6.51c-0.03,2.54-0.94,4.65-2.86,6.46l0,0c-1.99,1.84-4.32,2.73-7.12,2.74
		h-32.74c-0.44,0-0.8,0.36-0.8,0.8c0,0.44,0.36,0.8,0.8,0.8h32.76c3.17,0,5.93-1.07,8.19-3.16l0.02-0.02
		c2.23-2.09,3.34-4.65,3.36-7.62C274.7,19.03,273.59,16.44,271.34,14.38z"/>
	<g>
		<polygon class="st1" points="233.71,16.18 234.94,16.18 236.24,19.75 237.57,16.18 238.76,16.18 236.74,21.26 235.77,21.26 
			233.71,16.18 		"/>
		<path class="st1" d="M247.8,17.37h1.12v3.85h-1.12V17.37z M247.77,15.97h1.15v0.97h-1.15V15.97z M244.31,17.37h1.08v0.76
			c0.11-0.25,0.29-0.47,0.47-0.61c0.18-0.18,0.43-0.25,0.76-0.22v1.16h-0.04c-0.4,0-0.68,0.11-0.87,0.32
			c-0.22,0.22-0.32,0.58-0.32,1.04v1.41h-1.08V17.37z M241.96,18.99c-0.04-0.25-0.11-0.43-0.25-0.61c-0.14-0.14-0.32-0.22-0.54-0.22
			c-0.25,0-0.43,0.07-0.58,0.22c-0.14,0.18-0.25,0.36-0.29,0.61H241.96z M241.24,21.33c-0.25,0-0.54-0.07-0.79-0.18
			c-0.25-0.07-0.47-0.22-0.65-0.39c-0.18-0.18-0.29-0.36-0.4-0.61c-0.11-0.25-0.18-0.54-0.18-0.83c0-0.29,0.03-0.54,0.14-0.79
			c0.11-0.25,0.22-0.47,0.4-0.65c0.18-0.18,0.36-0.33,0.61-0.43c0.25-0.11,0.5-0.15,0.79-0.15c0.33,0,0.58,0.07,0.83,0.18
			c0.25,0.11,0.43,0.25,0.58,0.47c0.15,0.18,0.25,0.39,0.36,0.65c0.07,0.25,0.11,0.54,0.11,0.79l-0.04,0.14v0.15h-2.67
			c0.04,0.25,0.14,0.43,0.32,0.58c0.18,0.11,0.36,0.18,0.61,0.18c0.18,0,0.32-0.04,0.5-0.11c0.11-0.04,0.25-0.14,0.43-0.29
			l0.61,0.54c-0.18,0.25-0.4,0.43-0.65,0.54C241.93,21.26,241.6,21.33,241.24,21.33z"/>
		<path class="st1" d="M252.31,21.3c-0.4,0-0.76-0.07-1.15-0.22c-0.36-0.11-0.69-0.32-1.01-0.61l0.68-0.76
			c0.22,0.18,0.43,0.33,0.68,0.43c0.25,0.11,0.51,0.18,0.79,0.18c0.25,0,0.43-0.04,0.54-0.14c0.11-0.07,0.18-0.18,0.18-0.33v-0.22
			l-0.18-0.14l-0.29-0.14l-0.54-0.18l-0.68-0.18l-0.54-0.29l-0.32-0.43c-0.07-0.18-0.11-0.36-0.11-0.61v-0.04l0.11-0.61
			c0.11-0.18,0.22-0.36,0.39-0.47c0.14-0.14,0.33-0.25,0.54-0.32c0.21-0.07,0.47-0.11,0.72-0.11c0.36,0,0.68,0.07,1.01,0.18
			c0.32,0.11,0.61,0.25,0.87,0.47l-0.58,0.83l-0.68-0.36c-0.22-0.11-0.43-0.15-0.65-0.15c-0.22,0-0.36,0.04-0.47,0.15
			c-0.11,0.07-0.18,0.18-0.18,0.29v0.03l0.07,0.22l0.15,0.15l0.36,0.14l0.54,0.14l0.68,0.25c0.18,0.07,0.36,0.18,0.5,0.29l0.29,0.4
			c0.07,0.18,0.11,0.36,0.11,0.58v0.04c0,0.25-0.04,0.47-0.15,0.65c-0.07,0.18-0.18,0.36-0.36,0.51c-0.18,0.11-0.36,0.22-0.61,0.29
			C252.81,21.26,252.56,21.3,252.31,21.3L252.31,21.3z"/>
		<path class="st1" d="M255.55,17.37h1.12v3.85h-1.12V17.37z M255.51,15.97h1.15v0.97h-1.15V15.97z"/>
		<path class="st1" d="M263.62,17.37h1.08v0.54l0.22-0.22l0.25-0.22l0.29-0.14l0.36-0.04c0.43,0,0.75,0.15,0.97,0.4
			c0.25,0.25,0.36,0.57,0.36,1.04v2.49h-1.12v-2.16c0-0.25-0.04-0.43-0.14-0.58c-0.11-0.11-0.29-0.18-0.51-0.18
			c-0.21,0-0.39,0.07-0.5,0.18c-0.11,0.14-0.18,0.32-0.18,0.58v2.16h-1.08V17.37L263.62,17.37z M260.16,20l0.4-0.07
			c0.11-0.04,0.18-0.07,0.29-0.18c0.07-0.07,0.14-0.18,0.18-0.29c0.04-0.11,0.07-0.22,0.07-0.36l-0.07-0.36
			c-0.04-0.11-0.11-0.22-0.18-0.29l-0.29-0.18l-0.4-0.07l-0.36,0.07l-0.29,0.18c-0.11,0.07-0.18,0.18-0.22,0.29l-0.07,0.36
			c0,0.29,0.11,0.5,0.29,0.65C259.69,19.93,259.91,20,260.16,20z M260.05,22.38l-0.9-0.11c-0.32-0.03-0.58-0.15-0.83-0.29l0.4-0.83
			l0.61,0.29l0.68,0.07c0.36,0,0.65-0.07,0.83-0.25c0.18-0.18,0.25-0.43,0.25-0.8v-0.18c-0.14,0.18-0.32,0.36-0.5,0.47
			c-0.18,0.11-0.43,0.14-0.76,0.14c-0.22,0-0.43-0.04-0.65-0.11c-0.18-0.07-0.36-0.18-0.54-0.36c-0.14-0.15-0.25-0.32-0.36-0.54
			c-0.11-0.25-0.14-0.5-0.14-0.79c0-0.29,0.04-0.54,0.14-0.76c0.11-0.25,0.22-0.43,0.36-0.58c0.18-0.18,0.36-0.29,0.58-0.36
			l0.61-0.11c0.32,0,0.58,0.07,0.76,0.18c0.18,0.11,0.36,0.22,0.5,0.4v-0.51h1.08v2.99c0,0.68-0.15,1.19-0.47,1.51
			c-0.18,0.18-0.43,0.33-0.68,0.4L260.05,22.38z"/>
		<path class="st1" d="M236.52,27.6c-0.4,0-0.76-0.07-1.15-0.22c-0.36-0.11-0.68-0.32-1.01-0.61l0.68-0.76
			c0.22,0.18,0.43,0.33,0.69,0.43c0.25,0.11,0.5,0.18,0.79,0.18c0.25,0,0.43-0.04,0.54-0.14c0.11-0.07,0.18-0.18,0.18-0.32v-0.22
			l-0.18-0.14l-0.29-0.14l-0.54-0.18l-0.68-0.18l-0.54-0.29l-0.32-0.43c-0.07-0.18-0.11-0.36-0.11-0.61v-0.04l0.11-0.61
			c0.11-0.18,0.22-0.36,0.39-0.47c0.15-0.14,0.33-0.25,0.54-0.32c0.22-0.07,0.47-0.11,0.72-0.11c0.36,0,0.68,0.07,1.01,0.18
			c0.33,0.11,0.61,0.25,0.86,0.47l-0.58,0.83l-0.68-0.36c-0.22-0.11-0.43-0.15-0.65-0.15c-0.22,0-0.36,0.04-0.47,0.15
			c-0.11,0.07-0.18,0.18-0.18,0.29v0.04l0.07,0.22l0.14,0.14l0.36,0.14l0.54,0.14l0.68,0.25c0.18,0.07,0.36,0.18,0.5,0.29l0.29,0.4
			c0.07,0.18,0.11,0.36,0.11,0.58v0.04c0,0.25-0.04,0.47-0.14,0.65c-0.07,0.18-0.18,0.36-0.36,0.5c-0.18,0.11-0.36,0.22-0.61,0.29
			C237.03,27.57,236.78,27.6,236.52,27.6L236.52,27.6z"/>
		<path class="st1" d="M246.72,27.64c-0.29,0-0.54-0.08-0.79-0.18c-0.25-0.11-0.47-0.25-0.65-0.43c-0.18-0.18-0.29-0.36-0.4-0.61
			c-0.11-0.25-0.18-0.54-0.18-0.79c0-0.29,0.07-0.54,0.18-0.79c0.11-0.25,0.22-0.47,0.4-0.65c0.18-0.18,0.4-0.33,0.65-0.44
			c0.25-0.1,0.5-0.14,0.83-0.14c0.36,0,0.65,0.07,0.9,0.18c0.25,0.11,0.43,0.25,0.61,0.47l-0.65,0.72c-0.11-0.15-0.25-0.25-0.4-0.33
			c-0.11-0.07-0.29-0.11-0.51-0.11l-0.36,0.08l-0.29,0.25l-0.22,0.32l-0.07,0.4v0.04c0,0.15,0.04,0.29,0.07,0.4
			c0.04,0.15,0.11,0.25,0.22,0.36c0.07,0.11,0.18,0.18,0.29,0.22c0.11,0.04,0.25,0.07,0.43,0.07c0.18,0,0.33-0.04,0.47-0.11
			l0.4-0.29l0.65,0.65c-0.18,0.18-0.4,0.36-0.65,0.5C247.41,27.57,247.12,27.64,246.72,27.64L246.72,27.64z M242.4,25.3
			c-0.04-0.25-0.11-0.43-0.25-0.61c-0.14-0.15-0.32-0.22-0.54-0.22c-0.25,0-0.43,0.07-0.58,0.22c-0.14,0.18-0.25,0.36-0.29,0.61
			H242.4z M241.68,27.64c-0.25,0-0.54-0.08-0.79-0.18c-0.25-0.07-0.47-0.22-0.65-0.4c-0.18-0.18-0.29-0.36-0.4-0.61
			c-0.11-0.25-0.18-0.54-0.18-0.83c0-0.29,0.04-0.54,0.14-0.79c0.11-0.25,0.22-0.47,0.4-0.65c0.18-0.18,0.36-0.33,0.61-0.44
			c0.25-0.1,0.5-0.14,0.79-0.14c0.32,0,0.58,0.07,0.83,0.18c0.25,0.11,0.43,0.25,0.58,0.47c0.14,0.18,0.25,0.4,0.36,0.65
			c0.07,0.25,0.11,0.54,0.11,0.79l-0.04,0.14v0.14h-2.67c0.04,0.25,0.14,0.43,0.32,0.58c0.18,0.11,0.36,0.18,0.61,0.18
			c0.18,0,0.33-0.04,0.5-0.11c0.11-0.04,0.25-0.14,0.43-0.29l0.61,0.54c-0.18,0.25-0.39,0.43-0.65,0.54
			C242.36,27.57,242.04,27.64,241.68,27.64z"/>
		<path class="st1" d="M250.94,27.6c-0.4,0-0.72-0.14-0.97-0.4c-0.21-0.25-0.32-0.58-0.32-1.04v-2.49h1.08v2.16
			c0,0.25,0.07,0.43,0.18,0.58c0.11,0.11,0.29,0.18,0.51,0.18c0.18,0,0.36-0.07,0.5-0.18c0.11-0.15,0.18-0.33,0.18-0.58v-2.16h1.08
			v3.86h-1.08v-0.54l-0.22,0.21l-0.25,0.22l-0.29,0.14L250.94,27.6L250.94,27.6z"/>
		<path class="st1" d="M265.42,26.67c0.14,0,0.29-0.04,0.4-0.07l0.29-0.22c0.07-0.11,0.14-0.22,0.18-0.32l0.07-0.43v-0.04
			l-0.07-0.43l-0.18-0.33l-0.29-0.21c-0.11-0.04-0.25-0.08-0.4-0.08l-0.36,0.08l-0.29,0.21l-0.21,0.33
			c-0.04,0.11-0.07,0.25-0.07,0.43v0.04l0.07,0.43c0.04,0.11,0.11,0.22,0.21,0.32l0.29,0.22L265.42,26.67L265.42,26.67z
			 M265.17,27.6c-0.25,0-0.47-0.04-0.68-0.14c-0.18-0.07-0.36-0.18-0.54-0.36c-0.18-0.18-0.29-0.4-0.4-0.65
			c-0.11-0.25-0.14-0.5-0.14-0.83v-0.04c0-0.33,0.04-0.61,0.14-0.86c0.11-0.25,0.22-0.43,0.4-0.61c0.15-0.18,0.32-0.29,0.54-0.36
			c0.22-0.1,0.43-0.14,0.68-0.14c0.29,0,0.54,0.07,0.72,0.18c0.18,0.11,0.36,0.21,0.47,0.4v-1.91h1.08v5.26h-1.08v-0.54
			c-0.11,0.18-0.29,0.32-0.47,0.43C265.71,27.53,265.46,27.6,265.17,27.6z M261.06,25.3c-0.04-0.25-0.11-0.43-0.25-0.61
			c-0.15-0.15-0.33-0.22-0.54-0.22c-0.25,0-0.43,0.07-0.58,0.22c-0.14,0.18-0.25,0.36-0.29,0.61H261.06z M260.34,27.64
			c-0.25,0-0.54-0.08-0.79-0.18c-0.25-0.07-0.47-0.22-0.65-0.4c-0.18-0.18-0.29-0.36-0.4-0.61c-0.11-0.25-0.18-0.54-0.18-0.83
			c0-0.29,0.04-0.54,0.14-0.79c0.11-0.25,0.22-0.47,0.4-0.65c0.18-0.18,0.36-0.33,0.61-0.44c0.25-0.1,0.51-0.14,0.79-0.14
			c0.33,0,0.58,0.07,0.83,0.18c0.25,0.11,0.43,0.25,0.58,0.47c0.14,0.18,0.25,0.4,0.36,0.65c0.07,0.25,0.11,0.54,0.11,0.79
			l-0.04,0.14v0.14h-2.66c0.03,0.25,0.14,0.43,0.32,0.58c0.18,0.11,0.36,0.18,0.61,0.18c0.18,0,0.32-0.04,0.5-0.11
			c0.11-0.04,0.25-0.14,0.43-0.29l0.61,0.54c-0.18,0.25-0.4,0.43-0.65,0.54C261.03,27.57,260.7,27.64,260.34,27.64z M254.9,23.68
			h1.08v0.76c0.11-0.25,0.29-0.47,0.47-0.61c0.18-0.18,0.43-0.25,0.76-0.22v1.15h-0.04c-0.4,0-0.69,0.11-0.86,0.33
			c-0.22,0.21-0.33,0.58-0.33,1.04v1.41h-1.08V23.68z"/>
	</g>
	<path class="st0" d="M268.67,8.02h2.3v0.54h-0.8v2.2h-0.64v-2.2h-0.86V8.02L268.67,8.02z M274.4,8.02v2.73h-0.64V8.98l-0.7,1.18
		h-0.11l-0.7-1.18v1.77h-0.64V8.02h0.7l0.75,1.18l0.7-1.18H274.4z"/>
	<path class="st0" d="M224.27,14.2h-1.13v1.16h1.13V14.2z M223.13,11.26h1.13v1.14h-1.13V11.26z M226.08,8.25h-1.17V7.11h1.17V8.25z
		 M228.35,5.89h2.24V4.66h-2.24v3.59h-2.27v1.16h-1.93v0.8h-1.01v1.04h-1.23v1.81h-1.17v1.14h-0.77v1.16h-0.86
		c-1.72,2.55-3.07,5.06-4.05,7.61c-2.21-3.1-4.26-4.94-6.16-5.55c-0.52-0.15-0.89-0.03-1.11,0.43c-0.21,0.46-0.03,1.04,0.61,1.72
		c1.93,2.12,3.71,5.12,5.34,8.95c0.25,0.61,0.8,0.95,1.69,1.04c0.83,0.06,1.38-0.25,1.62-0.92c1.2-3.16,2.58-5.86,4.17-8.16v-1.32
		h0.92v-1.13h0.98v-1.38h1.13v-1.29h1.17V14.2h0.92v-1.41h1.01v-0.95h0.98V9.41h1.13V8.25h1.32V7.09h-1.32v1.16h-1.13v1.16h-1.13
		v1.14h-1.14V9.41h1.14V5.89H228.35z"/>
	<rect x="228.35" y="5.89" class="st1" width="1.13" height="1.2"/>
	<rect x="223.13" y="11.26" class="st1" width="1.13" height="1.14"/>
	<rect x="231.87" y="4.66" class="st1" width="1.23" height="1.23"/>
	<rect x="230.68" y="3.44" class="st1" width="1.23" height="1.23"/>
</g>
<g>
	<g>
		<path class="st1" d="M305.04,26.14l1.78-0.94c0.79,1.57,2.02,2.32,3.67,2.32c1.62,0,2.72-0.52,2.72-1.73
			c0-1.15-0.83-1.69-3.03-2.34c-2.58-0.76-4.65-1.46-4.65-4c0-2.27,1.86-3.76,4.56-3.76c2.63,0,4.18,1.3,4.99,2.86l-1.64,1.13
			c-0.79-1.33-1.93-1.94-3.37-1.94c-1.48,0-2.32,0.54-2.32,1.51c0,1.24,0.95,1.66,3.13,2.3c2.52,0.74,4.54,1.57,4.54,4.07
			c0,2.18-1.85,3.89-5.02,3.89C307.76,29.53,305.89,28.16,305.04,26.14z M317.08,26.97c0-2.07,1.77-3.46,6.23-3.96v-0.29
			c0-0.96-0.5-1.37-1.57-1.37c-1.33,0-2.41,0.65-3.22,1.3l-1.08-1.39c1.03-0.94,2.63-1.73,4.61-1.73c2.56,0,3.44,1.22,3.44,3.46
			v3.95c0,1.15,0.07,1.85,0.27,2.34h-2.23c-0.13-0.4-0.22-0.68-0.22-1.23c-0.97,0.99-2.11,1.37-3.53,1.37
			C318.23,29.42,317.08,28.55,317.08,26.97z M323.31,26.61V24.5c-2.65,0.36-4.05,1.01-4.05,2.05c0,0.76,0.52,1.15,1.33,1.15
			C321.72,27.71,322.6,27.27,323.31,26.61z M329.12,29.27v-7.8h-1.66v-1.77h1.66v-0.97c0-1.6,0.67-2.85,3.1-2.85
			c0.41,0,1.15,0.07,1.31,0.09v1.71c-0.14-0.04-0.5-0.07-0.76-0.07c-0.79,0-1.44,0.22-1.44,1.24v0.84h2.09v1.77h-2.09v7.8H329.12z
			 M334.57,24.5c0-3.64,2.58-4.97,4.56-4.97c2.14,0,4.2,1.28,4.2,5.17v0.52h-6.54c0.09,1.73,1.15,2.49,2.56,2.49
			c1.24,0,1.96-0.42,2.68-1.12l1.17,1.15c-0.99,1.1-2.3,1.73-4.02,1.73C336.78,29.47,334.57,28.01,334.57,24.5z M341.28,23.56
			c-0.13-1.46-0.85-2.23-2.18-2.23c-1.08,0-2.07,0.61-2.29,2.23H341.28z"/>
		<path class="st1" d="M346.09,29.27V15.94h1.58v6.88l6.04-6.88h1.91l-4.58,5.08l5.21,8.25h-1.82L350,22.23l-2.32,2.54v4.5H346.09z
			 M357.12,24.52c0-3.46,2.31-4.95,4.3-4.95c2.25,0,3.96,1.59,3.96,5.03v0.32h-6.72c0.05,2.14,1.3,3.3,2.86,3.3
			c1.37,0,2.14-0.56,2.86-1.55l0.9,0.79c-0.88,1.26-2.09,2.02-3.87,2.02C359.17,29.47,357.12,27.83,357.12,24.52z M363.91,23.71
			c-0.13-1.69-0.94-2.85-2.5-2.85c-1.28,0-2.49,0.88-2.7,2.85H363.91z M366.52,32.7l0.36-1.24c0.27,0.07,0.74,0.16,1.41,0.16
			c0.97,0,1.44-0.41,1.82-1.35l0.36-0.94l-3.67-9.57h1.64l2.79,7.69h0.04l2.79-7.69h1.57l-4.07,10.59
			c-0.65,1.68-1.39,2.58-3.24,2.58C367.46,32.93,366.94,32.82,366.52,32.7z"/>
	</g>
	<path class="st1" d="M325.01,10.28c0-0.85-0.75-0.99-1.51-0.99c-0.27,0-0.66,0-1.04,0c-0.65,0-1.28,0-1.28,0v3.11h1.28v-1.16h0.1
		l0.97,1.16h1.8l-1.31-1.22C324.65,11.07,325.01,10.74,325.01,10.28z M323.22,10.69c-0.27,0-0.76,0-0.76,0V9.95c0,0,0.68,0,0.76,0
		c0.27,0,0.46,0.13,0.46,0.37C323.69,10.56,323.48,10.69,323.22,10.69z M330.43,9.21c0.57,0,0.99,0.08,1.23,0.17v0.76
		c-0.24-0.06-0.57-0.13-1-0.13c-0.21,0-1.22,0.03-1.22,0.85c0,0.82,1,0.83,1.22,0.83c0.39,0,0.77-0.07,1-0.13v0.77
		c-0.23,0.09-0.66,0.17-1.23,0.17c-0.67,0-2.42-0.18-2.42-1.63C328.01,9.42,329.76,9.21,330.43,9.21z M325.88,9.29h1.36v3.11h-1.36
		V9.29z M317.03,9.29h3.2v0.64h-1.78v0.58h1.78v0.6h-1.78v0.61h1.78v0.68h-3.2V9.29z M307.11,9.29l-1.59,3.11h1.3l0.29-0.61h1.64
		l0.29,0.61h1.38l-1.59-3.11H307.11z M307.45,11.08l0.48-1l0.48,1H307.45z M315.6,9.29l0.75,3.11h-1.29l-0.43-1.76l-0.82,1.76h-0.81
		l-0.82-1.76l-0.43,1.76h-1.21l0.75-3.11h1.38l0.73,1.54l0.73-1.54H315.6z M352.23,10.79l1.44,1.6h-1.53l-0.84-1l-0.84,1h-1.53
		l1.44-1.6l-1.3-1.51h1.55l0.67,0.83l0.67-0.83h1.55L352.23,10.79z M363.46,9.29h3.2v0.64h-1.79v0.58h1.79v0.6h-1.79v0.61h1.79v0.68
		h-3.2V9.29z M371.09,11.47c0,0.32-0.26,1.03-1.84,1.03c-1.3,0-1.71-0.26-1.99-0.42l0.35-0.56c0.54,0.21,0.97,0.22,1.28,0.22
		c0.33,0,0.64-0.07,0.64-0.27c0-0.21-0.21-0.26-0.7-0.3c-0.46-0.04-1.41-0.16-1.41-0.89c-0.01-0.71,0.69-1.06,1.78-1.06
		c0.59,0,1.32,0.09,1.83,0.37l-0.44,0.55c-0.4-0.14-0.71-0.17-1.02-0.17c-0.34,0-0.68,0.06-0.68,0.29c0,0.23,0.35,0.24,0.61,0.27
		c0.32,0.04,0.74,0.04,1.08,0.19C370.98,10.89,371.09,11.14,371.09,11.47z M375.4,11.47c0,0.32-0.26,1.03-1.84,1.03
		c-1.3,0-1.78-0.26-2.06-0.42l0.42-0.56c0.54,0.21,0.97,0.22,1.28,0.22c0.33,0,0.64-0.07,0.64-0.27c0-0.21-0.21-0.26-0.7-0.3
		c-0.46-0.04-1.47-0.16-1.48-0.89c-0.01-0.71,0.75-1.06,1.84-1.06c0.59,0,1.32,0.09,1.83,0.37l-0.44,0.55
		c-0.4-0.14-0.71-0.17-1.02-0.17c-0.34,0-0.68,0.06-0.68,0.29c0,0.23,0.36,0.24,0.61,0.27c0.32,0.04,0.74,0.04,1.08,0.19
		C375.29,10.89,375.4,11.14,375.4,11.47z M362.54,10.28c0-0.85-0.75-0.99-1.51-0.99c-0.27,0-0.66,0-1.04,0c-0.65,0-1.28,0-1.28,0
		v3.11h1.28v-1.16h0.1l0.97,1.16h1.8l-1.31-1.22C362.18,11.07,362.54,10.74,362.54,10.28z M360.75,10.69c-0.26,0-0.76,0-0.76,0V9.95
		c0,0,0.68,0,0.76,0c0.27,0,0.46,0.13,0.46,0.37C361.21,10.56,361.01,10.69,360.75,10.69z M340.84,9.29h1.28v3.11h-1.48l-1.89-1.75
		v1.75h-1.28V9.29h1.46l1.91,1.76V9.29z M333.62,9.29l-1.59,3.11h1.31l0.29-0.61h1.64l0.29,0.61h1.38l-1.59-3.11H333.62z
		 M333.96,11.08l0.48-1l0.48,1H333.96z M345.04,9.29h3.2v0.64h-1.79v0.58h1.79v0.6h-1.79v0.61h1.79v0.68h-3.2V9.29z M356.57,9.29
		c-0.25,0-0.6,0-0.95,0c-0.64,0-1.28,0-1.28,0v3.11h1.28v-1.1c0,0,0.47,0,0.84,0c0.39,0,0.72-0.03,1.02-0.16
		c0.35-0.15,0.61-0.4,0.61-0.86C358.08,9.43,357.33,9.29,356.57,9.29z M356.29,10.63c-0.27,0-0.67,0-0.67,0v-0.7c0,0,0.59,0,0.68,0
		c0.27,0,0.46,0.1,0.46,0.34C356.75,10.51,356.55,10.63,356.29,10.63z"/>
</g>
<g>
	<polygon class="st0" points="138.29,10.55 141.02,10.55 139.34,21.14 136.61,21.14 138.29,10.55 	"/>
	<path class="st0" d="M128.84,10.55h4.18c2.66,0,3.35,1.53,3.06,3.36c-0.24,1.53-1.34,2.54-2.76,2.91l2.64,4.32h-3.42l-1.98-4.16
		l-0.66,4.16h-2.73L128.84,10.55L128.84,10.55z M131.24,12.66l-0.42,2.65h0.79c0.77,0,1.49-0.6,1.61-1.33l0,0
		c0.12-0.73-0.41-1.33-1.18-1.33H131.24L131.24,12.66z"/>
	<polygon class="st0" points="150.75,10.55 153.47,10.55 151.8,21.14 149.07,21.14 150.75,10.55 	"/>
	<polygon class="st0" points="155.55,10.55 161.53,10.55 161.17,12.85 157.91,12.85 157.62,14.66 160.72,14.66 160.36,16.96 
		157.26,16.96 156.96,18.83 160.22,18.83 159.86,21.14 153.87,21.14 155.55,10.55 	"/>
	<polygon class="st0" points="121.23,10.55 127.22,10.55 126.86,12.85 123.6,12.85 123.31,14.66 126.41,14.66 126.04,16.96 
		122.94,16.96 122.65,18.83 125.91,18.83 125.54,21.14 119.55,21.14 121.23,10.55 	"/>
	<polygon class="st0" points="143.09,10.55 149.14,10.55 148.78,12.85 145.45,12.85 145.16,14.66 148.18,14.66 147.82,16.96 
		144.79,16.96 144.13,21.14 141.41,21.14 143.09,10.55 	"/>
	<path class="st0" d="M163.14,10.55h3.55c4.23,0,5.2,3.2,4.87,5.29c-0.47,2.99-3.14,5.29-6.55,5.29h-3.55L163.14,10.55L163.14,10.55
		z M165.5,12.85c0.2,0,0.38,0,0.56,0c2.08,0,2.9,1.47,2.67,2.89c-0.3,1.9-1.67,3.09-3.46,3.09c-0.24,0-0.47,0-0.73,0L165.5,12.85
		L165.5,12.85z"/>
	<path class="st0" d="M108.45,9.11h5.04l0.6,7.69c3.34-5.78,6.73-11.34,10.15-16.8h1.65c-3.62,6.98-7.19,14-10.65,21.14h-3.7
		l-0.9-8.48c-0.22-2.11-0.65-3-2.18-3.22V9.11L108.45,9.11z"/>
	<polygon class="st0" points="110.36,4.74 114.66,6.56 115.03,11.35 115.35,11.35 119.26,4.74 119.26,4.41 110.36,4.41 110.36,4.74 
			"/>
	<path class="st0" d="M130.25,28.71c0.65,0,1.1,0.6,0.99,1.33c-0.11,0.74-0.72,1.34-1.37,1.34c-0.65,0-1.1-0.6-0.99-1.34
		C128.98,29.31,129.59,28.71,130.25,28.71L130.25,28.71z M128.04,23.62h1.77l-0.59,4.17c0.5-0.49,1.12-0.79,1.81-0.79
		c1.42,0,2.34,1.37,2.09,3.05c-0.25,1.68-1.59,3.05-3,3.05c-0.7,0-1.2-0.31-1.54-0.84l-0.09,0.66h-1.77L128.04,23.62L128.04,23.62z"
		/>
	<polygon class="st0" points="133.27,27.15 135.39,27.15 136.33,30.1 138.17,27.15 140.22,27.15 134.85,35.78 132.8,35.78 
		135.07,32.14 133.27,27.15 	"/>
	<polygon class="st0" points="149.89,32.92 152.73,23.62 155.27,23.62 152.43,32.92 149.89,32.92 	"/>
	<path class="st0" d="M148.75,23.62l-3.37,6.02h-0.03l-0.25-6.02h-4.36l-0.04,0.4c1.43,0,1.73,0.22,1.91,1.34l0.85,7.56h2.63
		l5.32-9.3H148.75L148.75,23.62z"/>
	<path class="st0" d="M165.23,31.59l-0.62,1.34h-2.75l5-9.28h3.38l0.85,9.28h-1.88l0,0.02h-0.79l-0.06-1.35H165.23L165.23,31.59z
		 M166.12,29.79h2.15l-0.2-4.34L166.12,29.79L166.12,29.79z"/>
	<path class="st0" d="M157.94,33.19c-1.79,0-2.98-0.56-3.83-1.07l1.21-1.83c0.76,0.42,1.36,0.91,2.74,0.91
		c0.44,0,0.87-0.11,1.11-0.53c0.35-0.61-0.08-0.93-1.07-1.49l-0.49-0.32c-1.47-1-2.11-1.94-1.41-3.59c0.44-1.06,1.61-1.86,3.54-1.86
		c1.33,0,2.58,0.57,3.3,1.12l-1.39,1.62c-0.71-0.57-1.29-0.85-1.97-0.85c-0.54,0-0.94,0.2-1.08,0.48c-0.27,0.52,0.09,0.87,0.86,1.35
		l0.58,0.37c1.78,1.12,2.21,2.29,1.76,3.38C161.02,32.76,159.51,33.19,157.94,33.19L157.94,33.19z"/>
</g>
<g>
	<g>
		<g>
			<path class="st0" d="M74.53,15.94c0-0.86,0.67-1.56,1.49-1.56c0.82,0,1.48,0.7,1.48,1.56c0,0.86-0.66,1.56-1.48,1.56
				C75.2,17.5,74.53,16.8,74.53,15.94L74.53,15.94z M76.02,17.13c0.62,0,1.13-0.54,1.13-1.19c0-0.65-0.51-1.18-1.13-1.18
				c-0.62,0-1.13,0.53-1.13,1.18C74.89,16.6,75.4,17.13,76.02,17.13L76.02,17.13z M75.82,16.62h-0.3v-1.38h0.55
				c0.11,0,0.24,0.01,0.33,0.08c0.11,0.08,0.17,0.21,0.17,0.35c0,0.15-0.09,0.29-0.22,0.35l0.24,0.61h-0.34l-0.2-0.54h-0.22V16.62
				L75.82,16.62z M75.82,15.85h0.17c0.06,0,0.14,0,0.19-0.03c0.05-0.03,0.07-0.1,0.07-0.16c0-0.05-0.03-0.11-0.07-0.14
				c-0.04-0.03-0.14-0.02-0.19-0.02h-0.17V15.85L75.82,15.85z"/>
		</g>
		<path class="st0" d="M53.31,5.57l-0.41,2.64c-0.88-0.47-1.53-0.65-2.22-0.65c-1.85,0-3.16,1.88-3.16,4.56
			c0,1.85,0.88,2.97,2.32,2.97c0.61,0,1.29-0.2,2.11-0.63l-0.43,2.78c-0.91,0.26-1.51,0.36-2.19,0.36c-2.68,0-4.34-2.02-4.34-5.26
			c0-4.36,2.3-7.41,5.59-7.41c0.42,0,0.8,0.04,1.11,0.13l1.02,0.27C53.02,5.45,53.09,5.47,53.31,5.57L53.31,5.57z"/>
		<path class="st0" d="M45.07,7.38c-0.08-0.02-0.16-0.03-0.25-0.03c-0.82,0-1.28,0.43-2.04,1.62L43,7.46h-2.25l-1.53,9.92h2.5
			c0.89-6.06,1.12-7.11,2.32-7.11c0.07,0,0.08,0,0.18,0.01c0.22-1.19,0.52-2.07,0.94-2.87L45.07,7.38L45.07,7.38z"/>
		<path class="st0" d="M30.2,17.26c-0.68,0.23-1.21,0.33-1.78,0.33c-1.27,0-1.96-0.77-1.96-2.18c0-0.28,0.02-0.57,0.07-0.89
			l0.15-0.97l0.11-0.79l1.08-6.76h2.47l-0.28,1.47h1.27l-0.35,2.41h-1.27l-0.66,4.14c-0.02,0.18-0.04,0.32-0.04,0.41
			c0,0.51,0.26,0.73,0.85,0.73c0.29,0,0.5-0.03,0.67-0.09L30.2,17.26L30.2,17.26z"/>
		<path class="st0" d="M20.41,10.6c0,1.25,0.58,2.12,1.88,2.76c1,0.5,1.16,0.64,1.16,1.09c0,0.62-0.44,0.9-1.42,0.9
			c-0.74,0-1.43-0.12-2.22-0.4l-0.34,2.29l0.11,0.03l0.46,0.1c0.15,0.03,0.36,0.06,0.65,0.09c0.59,0.06,1.05,0.08,1.37,0.08
			c2.61,0,3.81-1.05,3.81-3.31c0-1.36-0.5-2.16-1.74-2.76c-1.04-0.49-1.15-0.61-1.15-1.07c0-0.54,0.41-0.81,1.21-0.81
			c0.49,0,1.15,0.06,1.78,0.15l0.35-2.29c-0.65-0.11-1.61-0.19-2.18-0.19C21.36,7.25,20.4,8.77,20.41,10.6L20.41,10.6z"/>
		<path class="st0" d="M73.09,17.38h-2.35l0.12-0.97c-0.68,0.77-1.39,1.1-2.29,1.1c-1.82,0-3.01-1.64-3.01-4.12
			c0-3.3,1.85-6.08,4.05-6.08c0.96,0,1.7,0.42,2.38,1.36l0.54-3.48h2.45L73.09,17.38L73.09,17.38z M69.43,15.04
			c1.16,0,1.97-1.38,1.97-3.34c0-1.26-0.46-1.95-1.32-1.95c-1.13,0-1.92,1.38-1.92,3.34C68.15,14.39,68.58,15.04,69.43,15.04
			L69.43,15.04z"/>
		<path class="st0" d="M38.07,17.17c-0.85,0.27-1.67,0.4-2.55,0.4c-2.77,0-4.22-1.52-4.22-4.44c0-3.41,1.84-5.91,4.34-5.91
			c2.04,0,3.35,1.41,3.35,3.61c0,0.73-0.09,1.44-0.31,2.45h-4.94c-0.02,0.15-0.02,0.22-0.02,0.31c0,1.16,0.74,1.74,2.18,1.74
			c0.89,0,1.68-0.19,2.58-0.63L38.07,17.17L38.07,17.17z M36.67,11.27c0.01-0.21,0.02-0.38,0.02-0.5c0-0.81-0.44-1.29-1.18-1.29
			c-0.79,0-1.35,0.63-1.58,1.78L36.67,11.27L36.67,11.27z"/>
		<polygon class="st0" points="10.44,17.38 7.96,17.38 9.38,8.01 6.2,17.38 4.5,17.38 4.3,8.06 2.8,17.38 0.48,17.38 2.42,5.19 
			5.99,5.19 6.09,12.73 8.5,5.19 12.36,5.19 10.44,17.38 		"/>
		<path class="st0" d="M16.83,12.96c-0.26-0.03-0.38-0.04-0.56-0.04c-1.41,0-2.12,0.51-2.12,1.51c0,0.62,0.35,1.01,0.89,1.01
			C16.06,15.44,16.79,14.43,16.83,12.96L16.83,12.96z M18.64,17.38h-2.06l0.04-1.03c-0.63,0.82-1.46,1.2-2.6,1.2
			c-1.35,0-2.27-1.1-2.27-2.7c0-2.42,1.61-3.83,4.37-3.83c0.28,0,0.64,0.02,1.01,0.07c0.08-0.33,0.1-0.47,0.1-0.64
			c0-0.66-0.43-0.9-1.6-0.9c-0.7,0-1.51,0.11-2.06,0.28l-0.35,0.1L13,10l0.34-2.22c1.24-0.39,2.06-0.54,2.98-0.54
			c2.13,0,3.27,1.01,3.27,2.91c0,0.49-0.04,0.86-0.21,1.97l-0.52,3.51l-0.08,0.63l-0.06,0.51l-0.04,0.34L18.64,17.38L18.64,17.38z"
			/>
		<path class="st0" d="M57.59,12.96c-0.26-0.03-0.38-0.04-0.55-0.04c-1.41,0-2.13,0.51-2.13,1.51c0,0.62,0.35,1.01,0.9,1.01
			C56.82,15.44,57.54,14.43,57.59,12.96L57.59,12.96z M59.4,17.38h-2.06l0.05-1.03c-0.63,0.82-1.47,1.2-2.6,1.2
			c-1.35,0-2.28-1.1-2.28-2.7c0-2.42,1.61-3.83,4.37-3.83c0.28,0,0.64,0.02,1.01,0.07c0.08-0.33,0.1-0.47,0.1-0.64
			c0-0.66-0.43-0.9-1.6-0.9c-0.71,0-1.51,0.11-2.06,0.28l-0.35,0.1L53.76,10l0.34-2.22c1.24-0.39,2.06-0.54,2.97-0.54
			c2.14,0,3.27,1.01,3.27,2.91c0,0.49-0.04,0.86-0.2,1.97l-0.52,3.51l-0.08,0.63l-0.07,0.51l-0.04,0.34L59.4,17.38L59.4,17.38z"/>
		<path class="st0" d="M66.33,7.38c-0.07-0.02-0.16-0.03-0.25-0.03c-0.81,0-1.28,0.43-2.04,1.62l0.22-1.51h-2.25l-1.52,9.92h2.49
			c0.89-6.06,1.13-7.11,2.32-7.11c0.08,0,0.07-0.01,0.17,0.01C65.7,9.09,66,8.21,66.42,7.41L66.33,7.38L66.33,7.38z"/>
	</g>
	<g>
		<path class="st0" d="M55.91,26.99c0,2.25-0.7,3.57-1.79,3.57c-0.8,0.02-1.29-0.87-1.29-2.2c0-1.58,0.71-3.37,1.85-3.37
			C55.6,25,55.91,25.96,55.91,26.99L55.91,26.99z M58.36,27.03c0-2.5-1.23-4.44-3.56-4.44c-2.67,0-4.4,2.36-4.4,5.84
			c0,2.49,1.02,4.53,3.55,4.53C56.5,32.97,58.36,31.16,58.36,27.03L58.36,27.03z"/>
		<path class="st0" d="M51.2,20.84l-0.38,2.64c-0.83-0.47-1.43-0.66-2.08-0.66c-1.73,0-2.95,1.89-2.95,4.57
			c0,1.85,0.81,2.97,2.16,2.97c0.58,0,1.21-0.2,1.97-0.63l-0.4,2.78c-0.86,0.26-1.42,0.35-2.06,0.35c-2.5,0-4.06-2.02-4.06-5.26
			c0-4.37,2.15-7.41,5.23-7.41c0.4,0,0.75,0.05,1.04,0.13l0.95,0.27C50.93,20.71,50.99,20.74,51.2,20.84L51.2,20.84z"/>
		<path class="st0" d="M35.84,22.65c-0.07-0.02-0.15-0.03-0.24-0.03c-0.75,0-1.19,0.44-1.9,1.61l0.21-1.5h-2.1l-1.42,9.92h2.32
			c0.83-6.06,1.06-7.11,2.17-7.11c0.07,0,0.07,0,0.17,0.01c0.21-1.2,0.49-2.08,0.88-2.88L35.84,22.65L35.84,22.65z"/>
		<path class="st0" d="M66.13,32.54h-2.19l0.11-0.97c-0.64,0.76-1.3,1.1-2.15,1.1c-1.69,0-2.81-1.64-2.81-4.12
			c0-3.29,1.73-6.09,3.78-6.09c0.9,0,1.59,0.43,2.22,1.37l0.51-3.49h2.28L66.13,32.54L66.13,32.54z M62.7,30.21
			c1.09,0,1.84-1.38,1.84-3.34c0-1.26-0.43-1.94-1.23-1.94c-1.05,0-1.8,1.38-1.8,3.34C61.52,29.55,61.92,30.21,62.7,30.21
			L62.7,30.21z"/>
		<path class="st0" d="M14.09,32.5c-0.79,0.27-1.56,0.4-2.38,0.4c-2.59,0-3.94-1.53-3.94-4.44c0-3.4,1.72-5.91,4.05-5.91
			c1.91,0,3.13,1.4,3.13,3.61c0,0.73-0.08,1.44-0.28,2.45h-4.62c-0.01,0.15-0.02,0.22-0.02,0.31c0,1.16,0.69,1.74,2.04,1.74
			c0.83,0,1.58-0.19,2.41-0.63L14.09,32.5L14.09,32.5z M12.8,26.6c0.01-0.21,0.02-0.38,0.02-0.5c0-0.81-0.41-1.28-1.1-1.28
			c-0.74,0-1.27,0.64-1.48,1.77L12.8,26.6L12.8,26.6z"/>
		<path class="st0" d="M41.68,32.5c-0.79,0.27-1.56,0.4-2.38,0.4c-2.59,0-3.95-1.53-3.95-4.44c0-3.4,1.72-5.91,4.05-5.91
			c1.91,0,3.13,1.4,3.13,3.61c0,0.73-0.09,1.44-0.29,2.45h-4.61c-0.01,0.15-0.02,0.22-0.02,0.31c0,1.16,0.69,1.74,2.04,1.74
			c0.83,0,1.58-0.19,2.41-0.63L41.68,32.5L41.68,32.5z M40.38,26.6c0.02-0.21,0.02-0.38,0.02-0.5c0-0.81-0.41-1.28-1.1-1.28
			c-0.74,0-1.27,0.64-1.48,1.77L40.38,26.6L40.38,26.6z"/>
		<path class="st0" d="M74.05,32.5c-0.8,0.27-1.56,0.4-2.38,0.4c-2.59,0-3.94-1.53-3.94-4.44c0-3.4,1.72-5.91,4.06-5.91
			c1.91,0,3.13,1.4,3.13,3.61c0,0.73-0.08,1.44-0.29,2.45H70c-0.02,0.15-0.02,0.22-0.02,0.31c0,1.16,0.69,1.74,2.04,1.74
			c0.83,0,1.58-0.19,2.41-0.63L74.05,32.5L74.05,32.5z M72.74,26.6c0.01-0.21,0.02-0.38,0.02-0.5c0-0.81-0.41-1.28-1.1-1.28
			c-0.74,0-1.27,0.64-1.48,1.77L72.74,26.6L72.74,26.6z"/>
		<path class="st0" d="M7.23,23.1c-0.45-0.3-1.07-0.57-1.94-0.57c-0.94,0-1.69,0.2-1.69,1.19c0,1.76,3.42,1.1,3.42,4.88
			c0,3.43-2.26,4.33-4.3,4.33c-0.91,0-1.95-0.3-2.72-0.64l0.55-2.52c0.46,0.42,1.4,0.71,2.17,0.71c0.73,0,1.87-0.2,1.87-1.47
			c0-2-3.42-1.25-3.42-4.76c0-3.2,2-4.16,3.92-4.16c1.08,0,2.1,0.16,2.7,0.56L7.23,23.1L7.23,23.1z"/>
		<path class="st0" d="M20.89,32.5c-0.48,0.23-1.12,0.38-2.06,0.38c-2.03,0-3.28-2.03-3.28-4.49c0-3.23,1.82-5.8,4.49-5.8
			c0.58,0,1.47,0.25,2.18,0.66l-0.51,2.37c-0.5-0.33-1.02-0.53-1.55-0.53c-1.24,0-2.13,1.14-2.13,3.17c0,1.17,0.64,2.13,1.66,2.13
			c0.6,0,1.03-0.13,1.55-0.43L20.89,32.5L20.89,32.5z"/>
		<path class="st0" d="M29.56,30.02c-0.12,0.85-0.23,1.68-0.3,2.57h-2.23l0.19-1.6H27.2c-0.7,1.09-1.42,1.83-2.69,1.83
			c-1.4,0-2.16-1.47-2.16-3.4c0-0.67,0.04-1.04,0.19-2.08l0.63-4.59h2.48l-0.67,4.6c-0.07,0.49-0.16,0.98-0.16,1.5
			c0,0.58,0.26,1.17,0.93,1.13c1.02,0,1.62-1.25,1.79-2.7l0.69-4.53h2.4L29.56,30.02L29.56,30.02z"/>
		<g>
			<polygon class="st0" points="76.36,32.47 75.98,32.47 75.98,30.82 75.44,30.82 75.44,30.47 76.9,30.47 76.9,30.82 76.36,30.82 
				76.36,32.47 			"/>
			<polygon class="st0" points="78.85,32.47 78.5,32.47 78.5,30.8 78.5,30.8 78.16,32.47 77.79,32.47 77.46,30.8 77.46,30.8 
				77.46,32.47 77.11,32.47 77.11,30.47 77.66,30.47 77.98,32.04 77.99,32.04 78.31,30.47 78.85,30.47 78.85,32.47 			"/>
		</g>
	</g>
</g>
</svg>
