<svg xmlns="http://www.w3.org/2000/svg" width="18" height="15"><path fill-rule="evenodd" clip-rule="evenodd" fill="#5471BC" d="M17 0h-16c-.552 0-1 .447-1 1v12c0 .552.448 1 1 1h16c.553 0 1-.448 1-1v-12c0-.553-.447-1-1-1z"/><polygon fill-rule="evenodd" clip-rule="evenodd" fill="#fff" points="18,0 15.539,0 11,3.431 11,0 7,0 7,3.431 2.461,0 0,0 0,2.392 3.307,5 0,5 0,9 3.307,9 0,11.79 0,14 2.461,14 7,10.569 7,14 11,14 11,10.569 15.539,14 18,14 18,11.79 14.693,9 18,9 18,5 14.693,5 18,2.209"/><path fill-rule="evenodd" clip-rule="evenodd" fill="#E14957" d="M17.968.842c-.073-.442-.421-.778-.871-.822l-6.097 4.751v.229h1.431l5.537-4.158zm-10.968 4.158v-.229l-6.097-4.751c-.449.044-.798.38-.871.822l5.537 4.158h1.431zm4 4v.229l6.097 4.752c.45-.045.798-.381.871-.822l-5.537-4.159h-1.431zm-1-3v-6h-2v6h-8v2h8v6h2v-6h8v-2h-8zm-9.968 7.158c.073.441.422.777.872.822l6.096-4.751v-.229h-1.431l-5.537 4.158z"/></svg>